<?xml version="1.0" standalone="no"?>
<!DOCTYPE svg PUBLIC "-//W3C//DTD SVG 20010904//EN"
 "http://www.w3.org/TR/2001/REC-SVG-20010904/DTD/svg10.dtd">
<svg version="1.0" xmlns="http://www.w3.org/2000/svg"
 width="210.000000pt" height="210.000000pt" viewBox="0 0 210.000000 210.000000"
 preserveAspectRatio="xMidYMid meet">
<metadata>
Created by potrace 1.11, written by Peter Selinger 2001-2013
</metadata>
<g transform="translate(0.000000,210.000000) scale(0.100000,-0.100000)"
fill="#000000" stroke="none">
<path d="M11 1053 c0 -566 4 -1019 9 -1008 8 20 734 1894 770 1988 l18 47
-399 0 -399 0 1 -1027z"/>
<path d="M1303 2063 c8 -29 778 -2027 783 -2032 2 -2 4 458 4 1022 l0 1027
-396 0 c-373 0 -396 -1 -391 -17z"/>
<path d="M1050 1579 c0 -2 -63 -164 -139 -359 l-138 -355 275 -3 c151 -1 277
0 279 2 4 4 -264 705 -273 715 -2 2 -4 2 -4 0z"/>
<path d="M610 438 c-24 -57 -170 -429 -170 -433 0 -3 275 -5 611 -5 578 0 611
1 604 17 -4 10 -40 106 -80 213 -40 107 -76 203 -80 213 -7 16 -37 17 -441 17
l-434 0 -10 -22z"/>
</g>
</svg>
